<svg xmlns="http://www.w3.org/2000/svg" viewBox="0 0 32 40" x="0px" y="0px"><g data-name="Layer 2"><path d="M29.251,2.687a1.988,1.988,0,0,0-1.685-.393l-16,3.556A1.988,1.988,0,0,0,10,7.8V21.026A4.948,4.948,0,0,0,7,20a5,5,0,1,0,5,5V11.8L28,8.246v12.78A4.948,4.948,0,0,0,25,20a5,5,0,1,0,5,5V4.247A1.986,1.986,0,0,0,29.251,2.687ZM7,28a3,3,0,1,1,3-3A3,3,0,0,1,7,28Zm18,0a3,3,0,1,1,3-3A3,3,0,0,1,25,28ZM12,9.754V7.8L28,4.247V6.2Z"/></g><text x="0" y="47" fill="#000000" font-size="5px" font-weight="bold" font-family="'Helvetica Neue', Helvetica, Arial-Unicode, Arial, Sans-serif">Created by Fajriah Robiatul Adawiah</text><text x="0" y="52" fill="#000000" font-size="5px" font-weight="bold" font-family="'Helvetica Neue', Helvetica, Arial-Unicode, Arial, Sans-serif">from the Noun Project</text></svg>